<svg xmlns="http://www.w3.org/2000/svg" width="32" height="32" viewBox="0 0 32 32">
  <title>DevOps</title>
  <defs>
    <linearGradient id="g" x1="0" y1="0" x2="1" y2="1">
      <stop offset="0%" stop-color="#00d1b2"/>
      <stop offset="100%" stop-color="#6cf1e6"/>
    </linearGradient>
  </defs>
  <rect width="32" height="32" rx="6" ry="6" fill="#0b0f17"/>
  <path d="M7 16c0-2.761 2.239-5 5-5 2.222 0 4.125 1.445 4.769 3.429h.462C17.875 12.445 19.778 11 22 11c2.761 0 5 2.239 5 5s-2.239 5-5 5c-2.222 0-4.125-1.445-4.769-3.429h-.462C16.125 19.555 14.222 21 12 21c-2.761 0-5-2.239-5-5z" fill="none" stroke="url(#g)" stroke-width="2.5" stroke-linecap="round" stroke-linejoin="round"/>
</svg>
